<?xml version="1.0" standalone="no"?><!DOCTYPE svg PUBLIC "-//W3C//DTD SVG 1.1//EN" "http://www.w3.org/Graphics/SVG/1.1/DTD/svg11.dtd"><svg height="400" node-id="1" sillyvg="true" template-height="400" template-width="400" version="1.1" viewBox="0 0 400 400" width="400" xmlns="http://www.w3.org/2000/svg" xmlns:xlink="http://www.w3.org/1999/xlink"><defs node-id="132"><linearGradient gradientUnits="objectBoundingBox" id="linearGradient-1" node-id="5" spreadMethod="pad" x1="1.209414" x2="-0.25044602" y1="0.5" y2="0.5"><stop offset="0" stop-color="#b2caf4" stop-opacity="0"></stop><stop offset="1" stop-color="#81baff"></stop></linearGradient><linearGradient gradientUnits="objectBoundingBox" id="linearGradient-4" node-id="12" spreadMethod="pad" x1="0.5606294" x2="0.4056022" y1="0.09706834" y2="1"><stop offset="0" stop-color="#edf5ff"></stop><stop offset="1" stop-color="#a1b6cc"></stop></linearGradient><linearGradient gradientUnits="objectBoundingBox" id="linearGradient-5" node-id="15" spreadMethod="pad" x1="0.45343667" x2="0.5711975" y1="0.07584357" y2="1"><stop offset="0" stop-color="#eef4ff"></stop><stop offset="1" stop-color="#a1b6cc"></stop></linearGradient><linearGradient gradientUnits="objectBoundingBox" id="linearGradient-6" node-id="18" spreadMethod="pad" x1="0.42237335" x2="0.42237335" y1="1" y2="-0.44147897"><stop offset="0" stop-color="#f7f8f9"></stop><stop offset="1" stop-color="#d5e4f8"></stop></linearGradient><linearGradient gradientUnits="objectBoundingBox" id="linearGradient-7" node-id="21" spreadMethod="pad" x1="0.42237335" x2="0.42237335" y1="0.9970967" y2="0.02857167"><stop offset="0" stop-color="#f2f4f9" stop-opacity="0"></stop><stop offset="1" stop-color="#e7eeff"></stop></linearGradient><linearGradient gradientUnits="objectBoundingBox" id="linearGradient-8" node-id="24" spreadMethod="pad" x1="0.42237335" x2="0.42237335" y1="0.9970967" y2="0.02857167"><stop offset="0" stop-color="#f2f4f9" stop-opacity="0"></stop><stop offset="1" stop-color="#e7eeff"></stop></linearGradient><linearGradient gradientUnits="objectBoundingBox" id="linearGradient-9" node-id="27" spreadMethod="pad" x1="0.42237335" x2="0.42237335" y1="1" y2="0"><stop offset="0.0029032938" stop-color="#f2f4f9" stop-opacity="0"></stop><stop offset="0.9797561" stop-color="#eaf0ff"></stop></linearGradient><linearGradient gradientUnits="objectBoundingBox" id="linearGradient-11" node-id="32" spreadMethod="pad" x1="0.5698649" x2="0.39122286" y1="0.09706834" y2="1"><stop offset="0" stop-color="#edf5ff"></stop><stop offset="1" stop-color="#a1b6cc"></stop></linearGradient><linearGradient gradientUnits="objectBoundingBox" id="linearGradient-12" node-id="35" spreadMethod="pad" x1="0.44341227" x2="0.5865253" y1="0.07584357" y2="1"><stop offset="0" stop-color="#eef4ff"></stop><stop offset="1" stop-color="#a1b6cc"></stop></linearGradient><linearGradient gradientUnits="objectBoundingBox" id="linearGradient-14" node-id="40" spreadMethod="pad" x1="0.5700431" x2="0.39094552" y1="0.09706834" y2="1"><stop offset="0" stop-color="#edf5ff"></stop><stop offset="1" stop-color="#a1b6cc"></stop></linearGradient><linearGradient gradientUnits="objectBoundingBox" id="linearGradient-15" node-id="43" spreadMethod="pad" x1="0.44256103" x2="0.58782685" y1="0.07584357" y2="1"><stop offset="0" stop-color="#eef4ff"></stop><stop offset="1" stop-color="#a1b6cc"></stop></linearGradient><linearGradient gradientUnits="objectBoundingBox" id="linearGradient-16" node-id="46" spreadMethod="pad" x1="0.5" x2="0.5" y1="0" y2="1.2429078"><stop offset="0" stop-color="#b6c8df"></stop><stop offset="1" stop-color="#d6e1f1"></stop></linearGradient><linearGradient gradientUnits="objectBoundingBox" id="linearGradient-17" node-id="49" spreadMethod="pad" x1="0.5" x2="0.5" y1="0" y2="1"><stop offset="0" stop-color="#becee8"></stop><stop offset="1" stop-color="#e7eefa"></stop></linearGradient><linearGradient gradientUnits="objectBoundingBox" id="linearGradient-18" node-id="52" spreadMethod="pad" x1="0.5" x2="0.5" y1="0" y2="1"><stop offset="0" stop-color="#ccd8eb"></stop><stop offset="1" stop-color="#e7eefa"></stop></linearGradient><linearGradient gradientUnits="objectBoundingBox" id="linearGradient-19" node-id="55" spreadMethod="pad" x1="0.5" x2="0.5" y1="0" y2="1"><stop offset="0" stop-color="#bdcde7"></stop><stop offset="1" stop-color="#eff5ff"></stop></linearGradient><linearGradient gradientUnits="objectBoundingBox" id="linearGradient-20" node-id="58" spreadMethod="pad" x1="0.5" x2="0.5" y1="0" y2="1"><stop offset="0" stop-color="#ccd8eb"></stop><stop offset="1" stop-color="#e7eefa"></stop></linearGradient><linearGradient gradientUnits="objectBoundingBox" id="linearGradient-21" node-id="61" spreadMethod="pad" x1="0.5" x2="0.5" y1="0" y2="1"><stop offset="0" stop-color="#becee8"></stop><stop offset="1" stop-color="#e7eefa"></stop></linearGradient><linearGradient gradientUnits="objectBoundingBox" id="linearGradient-22" node-id="64" spreadMethod="pad" x1="0.5" x2="0.5" y1="0" y2="1"><stop offset="0" stop-color="#ccd8eb"></stop><stop offset="1" stop-color="#e7eefa"></stop></linearGradient><linearGradient gradientUnits="objectBoundingBox" id="linearGradient-23" node-id="67" spreadMethod="pad" x1="0.5" x2="0.5" y1="0" y2="1"><stop offset="0" stop-color="#f5faff"></stop><stop offset="1" stop-color="#9ab0d0"></stop></linearGradient><linearGradient gradientUnits="objectBoundingBox" id="linearGradient-26" node-id="71" spreadMethod="pad" x1="0.5" x2="0.5" y1="0" y2="1"><stop offset="0" stop-color="#e6f1fd"></stop><stop offset="1" stop-color="#aabcd6"></stop></linearGradient><linearGradient gradientUnits="objectBoundingBox" id="linearGradient-27" node-id="74" spreadMethod="pad" x1="0.002203864" x2="0.9977962" y1="0.5022039" y2="0.5022039"><stop offset="0" stop-color="#b3c7e2"></stop><stop offset="1" stop-color="#d4e1f2"></stop></linearGradient><linearGradient gradientUnits="objectBoundingBox" id="linearGradient-30" node-id="78" spreadMethod="pad" x1="0.002203864" x2="0.9977962" y1="0.5022039" y2="0.5022039"><stop offset="0" stop-color="#ffffff"></stop><stop offset="1" stop-color="#ffffff" stop-opacity="0.09743772"></stop></linearGradient><linearGradient gradientUnits="objectBoundingBox" id="linearGradient-33" node-id="82" spreadMethod="pad" x1="0.5" x2="0.5" y1="1.1503637" y2="0.06451699"><stop offset="0" stop-color="#ffffff"></stop><stop offset="1" stop-color="#bed0e8"></stop></linearGradient><linearGradient gradientUnits="objectBoundingBox" id="linearGradient-34" node-id="85" spreadMethod="pad" x1="0.5" x2="0.5" y1="1.1503637" y2="0.06451699"><stop offset="0" stop-color="#ffffff" stop-opacity="0.09743772"></stop><stop offset="1" stop-color="#ffffff"></stop></linearGradient><filter height="16.994995" id="filter-2" node-id="8" width="116.04999" x="142.03" y="317.997"><feGaussianBlur color-interpolation-filters="linearRGB" in="SourceGraphic" result="result1" stdDeviation="1 1"></feGaussianBlur></filter><filter height="69.929054" id="filter-3" node-id="10" width="78.921234" x="-21.928612" y="-4.528162"><feGaussianBlur color-interpolation-filters="linearRGB" in="SourceGraphic" result="result1" stdDeviation="11 0"></feGaussianBlur></filter><filter height="69.17129" id="filter-10" node-id="30" width="75.91409" x="-23.913567" y="-13.171848"><feGaussianBlur color-interpolation-filters="linearRGB" in="SourceGraphic" result="result1" stdDeviation="11 0"></feGaussianBlur></filter><filter height="69.959625" id="filter-13" node-id="38" width="79.00101" x="-18.594006" y="1.0410194"><feGaussianBlur color-interpolation-filters="linearRGB" in="SourceGraphic" result="result1" stdDeviation="11 0"></feGaussianBlur></filter><mask height="97.256805" id="mask-25" maskUnits="userSpaceOnUse" node-id="119" width="178.77551" x="111.94238" y="184.87485"><path d="M 275.80 191.00 L 275.80 269.70 L 275.50 271.90 L 274.70 273.80 L 273.50 275.40 L 271.90 276.60 L 270.00 277.40 L 267.80 277.70 L 134.80 277.70 L 132.70 277.40 L 130.80 276.60 L 129.20 275.40 L 127.90 273.80 L 127.10 271.90 L 126.80 269.70 L 126.80 191.00 L 187.80 191.00 L 188.00 193.50 L 188.70 195.70 L 191.00 199.70 L 194.50 202.70 L 196.60 203.70 L 198.90 204.30 L 201.30 204.60 L 203.80 204.30 L 206.10 203.70 L 208.20 202.70 L 211.70 199.70 L 214.00 195.70 L 214.60 193.50 L 214.90 191.00 L 275.80 191.00 Z" fill="#ffffff" fill-rule="evenodd" node-id="297" stroke="none" target-height="86.70001" target-width="148.99998" target-x="126.8" target-y="191"></path></mask></defs><g node-id="385"><g node-id="386"><path d="M 0.00 0.00 L 400.00 0.00 L 400.00 400.00 L 0.00 400.00 Z" fill="#ffffff" fill-opacity="0" fill-rule="nonzero" group-id="1,2" id="矩形" node-id="91" stroke="none" target-height="400" target-width="400" target-x="0" target-y="0"></path><g node-id="388"><path d="M 255.00 326.50 L 254.70 327.10 L 253.50 327.80 L 250.70 328.60 L 238.90 330.40 L 221.40 331.60 L 200.00 332.00 L 178.60 331.60 L 161.10 330.40 L 149.30 328.60 L 146.50 327.80 L 145.30 327.10 L 145.00 326.50 L 145.30 325.90 L 146.50 325.20 L 149.30 324.40 L 161.10 322.60 L 178.60 321.40 L 200.00 321.00 L 221.40 321.40 L 238.90 322.60 L 250.70 324.40 L 253.50 325.20 L 254.70 325.90 L 255.00 326.50 Z" fill="url(#linearGradient-1)" fill-opacity="0.33098492" fill-rule="evenodd" filter="url(#filter-2)" group-id="1,2,4" id="椭圆形" node-id="92" stroke="none" target-height="11" target-width="110" target-x="145" target-y="321"></path></g><g node-id="389"><g node-id="399"><path d="M 86.00 247.40 L 85.30 248.30 L 84.10 248.80 L 79.50 249.40 L 75.00 248.80 L 73.20 247.90 L 73.30 247.00 L 75.00 246.00 L 79.50 245.50 L 84.10 246.00 L 85.30 246.50 L 86.00 247.40 Z" fill="#85a0c7" fill-opacity="0.46671754" fill-rule="evenodd" filter="url(#filter-3)" group-id="1,2,5,15" id="椭圆形" node-id="94" stroke="none" target-height="3.899994" target-width="12.800003" target-x="73.2" target-y="245.5"></path></g><g node-id="400"><path d="M 73.90 247.40 L 74.50 247.30 L 75.70 246.30 L 78.40 243.00 L 81.40 238.60 L 85.50 231.00 L 86.00 227.40 L 84.90 224.30 L 83.90 223.10 L 82.60 222.30 L 81.10 221.90 L 79.60 222.00 L 78.20 222.60 L 76.90 223.60 L 75.10 226.60 L 73.60 235.30 L 73.10 240.80 L 73.20 245.30 L 73.50 246.90 L 73.90 247.40 Z" fill="url(#linearGradient-4)" fill-opacity="0.4493209" fill-rule="evenodd" group-id="1,2,5,16" id="椭圆形" node-id="95" stroke="none" target-height="25.5" target-width="12.900002" target-x="73.1" target-y="221.9"></path></g><path d="M 74.20 247.40 L 74.70 246.90 L 75.20 245.10 L 75.80 239.90 L 75.80 233.40 L 75.60 227.40 L 75.00 223.20 L 74.30 221.20 L 73.20 219.50 L 71.80 218.20 L 70.20 217.40 L 68.50 217.00 L 66.70 217.20 L 65.10 218.00 L 63.80 219.20 L 62.80 220.80 L 62.20 222.70 L 62.00 224.70 L 62.30 226.90 L 63.70 230.80 L 66.30 236.20 L 70.90 244.20 L 73.50 247.20 L 74.20 247.40 Z" fill="url(#linearGradient-5)" fill-opacity="0.7793666" fill-rule="evenodd" group-id="1,2,5" id="椭圆形" node-id="96" stroke="none" target-height="30.399994" target-width="13.800003" target-x="62" target-y="217"></path></g><g node-id="390"><path d="M 63.50 91.00 L 57.70 90.70 L 55.10 90.00 L 52.70 88.90 L 50.50 87.30 L 48.70 85.50 L 47.10 83.30 L 46.00 80.90 L 45.30 78.30 L 45.00 75.50 L 45.30 72.70 L 46.00 70.10 L 47.10 67.70 L 48.70 65.50 L 50.50 63.70 L 52.70 62.10 L 55.10 61.00 L 57.70 60.30 L 60.50 60.00 L 63.40 60.30 L 66.20 56.10 L 69.90 52.80 L 72.10 51.50 L 76.80 49.70 L 82.00 49.00 L 84.90 49.20 L 90.20 50.60 L 92.60 51.90 L 95.50 54.00 L 98.00 56.50 L 100.10 59.40 L 101.40 61.80 L 102.80 67.10 L 103.00 70.00 L 117.40 70.20 L 119.20 70.70 L 122.30 72.50 L 124.60 75.20 L 125.80 78.60 L 126.00 80.50 L 125.30 84.20 L 124.60 85.80 L 122.30 88.50 L 119.20 90.30 L 117.40 90.80 L 63.50 91.00 Z" fill="url(#linearGradient-6)" fill-opacity="0.7" fill-rule="evenodd" group-id="1,2,6" id="形状结合" node-id="97" stroke="none" target-height="42" target-width="81" target-x="45" target-y="49"></path></g><g node-id="391"><path d="M 40.00 296.00 L 46.20 287.40 L 52.00 280.30 L 57.60 274.30 L 62.80 269.50 L 67.80 265.70 L 72.50 262.70 L 77.10 260.50 L 81.40 259.00 L 85.60 258.10 L 89.80 257.80 L 93.80 258.10 L 98.10 258.90 L 102.60 260.40 L 107.40 262.60 L 112.50 265.50 L 117.90 269.40 L 123.80 274.20 L 130.00 280.20 L 136.80 287.40 L 144.00 296.00 L 40.00 296.00 Z" fill="url(#linearGradient-7)" fill-rule="evenodd" group-id="1,2,7" id="路径" node-id="99" stroke="none" target-height="38.200012" target-width="104" target-x="40" target-y="257.8"></path><path d="M 101.60 296.00 L 107.10 286.10 L 112.50 277.60 L 117.80 270.40 L 122.90 264.20 L 127.90 259.00 L 132.70 254.80 L 137.50 251.30 L 142.10 248.60 L 146.70 246.60 L 151.30 245.10 L 155.90 244.30 L 160.50 244.00 L 165.40 244.30 L 171.40 245.20 L 178.40 247.00 L 186.70 249.70 L 196.50 253.50 L 208.00 258.60 L 221.30 265.10 L 236.60 273.40 L 254.20 283.60 L 274.40 296.00 L 101.60 296.00 Z" fill="url(#linearGradient-8)" fill-rule="evenodd" group-id="1,2,7" id="路径-2" node-id="100" stroke="none" target-height="52" target-width="172.79999" target-x="101.6" target-y="244"></path><path d="M 360.00 296.00 L 353.80 287.70 L 347.90 280.50 L 342.30 274.50 L 337.00 269.50 L 332.00 265.50 L 327.20 262.20 L 322.60 259.60 L 318.20 257.70 L 314.00 256.40 L 309.90 255.60 L 305.80 255.40 L 301.20 255.70 L 295.80 256.70 L 289.50 258.50 L 282.10 261.20 L 273.50 265.10 L 263.60 270.30 L 252.10 277.10 L 239.00 285.50 L 224.00 296.00 L 360.00 296.00 Z" fill="url(#linearGradient-9)" fill-rule="evenodd" group-id="1,2,7" id="路径-3" node-id="101" stroke="none" target-height="40.600006" target-width="136" target-x="224" target-y="255.4"></path></g><g node-id="392"><g node-id="401"><path d="M 305.00 220.40 L 304.70 221.00 L 303.50 221.50 L 300.00 222.00 L 296.50 221.50 L 295.40 221.00 L 295.10 220.40 L 295.40 219.90 L 296.50 219.30 L 300.00 218.80 L 303.50 219.30 L 304.70 219.90 L 305.00 220.40 Z" fill="#85a0c7" fill-opacity="0.66985214" fill-rule="evenodd" filter="url(#filter-10)" group-id="1,2,8,17" id="椭圆形" node-id="103" stroke="none" target-height="3.199997" target-width="9.899994" target-x="295.1" target-y="218.8"></path></g><g node-id="402"><path d="M 295.70 220.40 L 296.30 220.20 L 297.50 219.20 L 300.30 215.70 L 304.60 208.70 L 305.00 206.10 L 304.10 203.90 L 302.40 202.40 L 300.10 202.30 L 298.00 203.40 L 296.60 205.50 L 295.30 213.70 L 295.10 218.20 L 295.30 219.90 L 295.70 220.40 Z" fill="url(#linearGradient-11)" fill-opacity="0.5765206" fill-rule="evenodd" group-id="1,2,8,18" id="椭圆形" node-id="104" stroke="none" target-height="18.09999" target-width="9.899994" target-x="295.1" target-y="202.3"></path></g><path d="M 295.50 220.40 L 295.90 219.80 L 296.60 215.70 L 296.40 204.80 L 295.50 201.90 L 294.70 200.80 L 292.30 199.20 L 289.60 199.20 L 287.40 200.50 L 286.10 203.00 L 286.20 206.00 L 287.80 209.60 L 292.10 216.90 L 294.80 220.20 L 295.50 220.40 Z" fill="url(#linearGradient-12)" fill-rule="evenodd" group-id="1,2,8" id="椭圆形" node-id="105" stroke="none" target-height="21.199997" target-width="10.5" target-x="286.1" target-y="199.2"></path></g><g node-id="393"><g node-id="403"><path d="M 322.40 328.00 L 321.70 328.90 L 320.50 329.40 L 315.90 330.00 L 311.30 329.40 L 309.60 328.50 L 309.60 327.60 L 311.30 326.60 L 315.90 326.00 L 320.50 326.60 L 321.70 327.10 L 322.40 328.00 Z" fill="#85a0c7" fill-opacity="0.5353029" fill-rule="evenodd" filter="url(#filter-13)" group-id="1,2,9,19" id="椭圆形" node-id="107" stroke="none" target-height="4" target-width="12.799988" target-x="309.6" target-y="326"></path></g><g node-id="404"><path d="M 311.20 328.40 L 312.00 328.30 L 313.60 327.10 L 317.10 323.10 L 321.00 317.70 L 325.70 310.10 L 326.90 306.40 L 326.90 304.20 L 326.50 302.20 L 325.60 300.40 L 324.20 299.00 L 322.50 298.00 L 320.60 297.60 L 318.70 297.70 L 316.90 298.40 L 315.20 299.60 L 313.80 301.20 L 312.30 304.80 L 310.80 313.70 L 310.20 323.50 L 310.70 327.70 L 311.20 328.40 Z" fill="url(#linearGradient-14)" fill-opacity="0.5170562" fill-rule="evenodd" group-id="1,2,9,20" id="椭圆形" node-id="108" stroke="none" target-height="30.799988" target-width="16.699982" target-x="310.2" target-y="297.6"></path></g><path d="M 311.20 328.40 L 312.10 327.20 L 312.60 325.60 L 313.30 319.40 L 313.40 311.70 L 312.70 301.30 L 312.30 299.50 L 311.30 297.00 L 309.80 295.00 L 308.00 293.40 L 305.90 292.40 L 304.40 292.10 L 301.30 292.30 L 299.80 292.80 L 297.30 294.70 L 296.00 296.60 L 295.20 298.80 L 295.00 301.30 L 295.40 303.90 L 297.30 308.50 L 300.70 315.00 L 304.80 321.60 L 308.60 326.60 L 309.80 327.80 L 311.20 328.40 Z" fill="url(#linearGradient-15)" fill-opacity="0.8968564" fill-rule="evenodd" group-id="1,2,9" id="椭圆形" node-id="109" stroke="none" target-height="36.299988" target-width="18.399994" target-x="295" target-y="292.1"></path></g></g><g node-id="387"><path d="M 143.70 167.50 L 259.00 167.50 L 259.00 204.20 L 143.70 204.20 Z" fill="url(#linearGradient-16)" fill-rule="evenodd" group-id="1,3" id="矩形" node-id="111" stroke="none" target-height="36.699997" target-width="115.3" target-x="143.7" target-y="167.5"></path><path d="M 127.50 189.80 L 158.00 142.00 L 158.00 178.50 L 126.80 248.90 L 126.80 192.00 L 127.50 189.80 Z" fill="url(#linearGradient-17)" fill-rule="evenodd" group-id="1,3" id="矩形" node-id="112" stroke="none" target-height="106.899994" target-width="31.199997" target-x="126.8" target-y="142"></path><path d="M 127.50 192.80 L 158.00 145.00 L 158.00 181.50 L 126.80 251.90 L 126.80 195.00 L 127.50 192.80 Z" fill="url(#linearGradient-18)" fill-rule="evenodd" group-id="1,3" id="矩形备份-17" node-id="113" stroke="none" target-height="106.899994" target-width="31.199997" target-x="126.8" target-y="145"></path><path d="M 158.00 142.00 L 245.70 142.00 L 245.70 178.70 L 158.00 178.70 Z" fill="url(#linearGradient-19)" fill-rule="evenodd" group-id="1,3" id="矩形" node-id="114" stroke="none" target-height="36.699997" target-width="87.7" target-x="158" target-y="142"></path><path d="M 158.00 144.00 L 245.70 144.00 L 245.70 177.00 L 158.00 177.00 Z" fill="url(#linearGradient-20)" fill-rule="evenodd" group-id="1,3" id="矩形备份-16" node-id="115" stroke="none" target-height="33" target-width="87.7" target-x="158" target-y="144"></path><g node-id="394"><path d="M 275.20 189.00 L 245.70 142.00 L 245.70 178.50 L 275.80 248.10 L 275.80 191.20 L 275.20 189.00 Z" fill="url(#linearGradient-21)" fill-rule="evenodd" group-id="1,3,10" id="矩形" node-id="116" stroke="none" target-height="106.100006" target-width="30.09999" target-x="245.7" target-y="142"></path></g><g node-id="395"><path d="M 275.20 191.50 L 245.80 145.00 L 245.80 181.50 L 275.80 250.60 L 275.80 193.60 L 275.20 191.50 Z" fill="url(#linearGradient-22)" fill-rule="evenodd" group-id="1,3,11" id="矩形备份-18" node-id="117" stroke="none" target-height="105.600006" target-width="29.999985" target-x="245.8" target-y="145"></path></g><g node-id="396"><g node-id="405"><path d="M 275.80 191.00 L 275.80 269.70 L 275.50 271.90 L 274.70 273.80 L 273.50 275.40 L 271.90 276.60 L 270.00 277.40 L 267.80 277.70 L 134.80 277.70 L 132.70 277.40 L 130.80 276.60 L 129.20 275.40 L 127.90 273.80 L 127.10 271.90 L 126.80 269.70 L 126.80 191.00 L 187.80 191.00 L 188.00 193.50 L 188.70 195.70 L 191.00 199.70 L 194.50 202.70 L 196.60 203.70 L 198.90 204.30 L 201.30 204.60 L 203.80 204.30 L 206.10 203.70 L 208.20 202.70 L 211.70 199.70 L 214.00 195.70 L 214.60 193.50 L 214.90 191.00 L 275.80 191.00 Z" fill="url(#linearGradient-23)" fill-rule="evenodd" group-id="1,3,12,21" node-id="369" stroke="none" target-height="86.70001" target-width="148.99998" target-x="126.8" target-y="191"></path></g><path d="M 275.80 193.00 L 275.80 266.00 L 275.50 268.20 L 274.70 270.10 L 273.50 271.70 L 271.90 272.90 L 270.00 273.70 L 267.80 274.00 L 134.80 274.00 L 132.70 273.70 L 130.80 272.90 L 129.20 271.70 L 127.90 270.10 L 127.10 268.20 L 126.80 266.00 L 126.80 193.00 L 187.80 193.00 L 188.00 195.50 L 188.70 197.70 L 191.00 201.70 L 194.50 204.70 L 196.60 205.70 L 198.90 206.30 L 201.30 206.60 L 203.80 206.30 L 206.10 205.70 L 208.20 204.70 L 211.70 201.70 L 214.00 197.70 L 214.60 195.50 L 214.90 193.00 L 275.80 193.00 Z" fill="url(#linearGradient-26)" fill-rule="evenodd" group-id="1,3,12,22" node-id="374" stroke="none" target-height="81" target-width="148.99998" target-x="126.8" target-y="193"></path></g><g node-id="397"><path d="M 183.00 218.50 L 221.70 218.50 L 223.50 218.70 L 226.60 219.90 L 228.60 221.40 L 230.10 223.30 L 230.80 224.80 L 231.40 228.20 L 231.30 230.00 L 230.10 233.10 L 228.60 235.10 L 226.60 236.60 L 225.10 237.30 L 221.70 237.90 L 183.00 237.90 L 181.20 237.80 L 178.10 236.60 L 176.10 235.10 L 174.60 233.10 L 173.90 231.60 L 173.30 228.20 L 173.40 226.50 L 174.60 223.30 L 176.10 221.40 L 178.10 219.90 L 179.60 219.10 L 183.00 218.50 Z" fill="url(#linearGradient-27)" fill-rule="evenodd" group-id="1,3,13" node-id="379" stroke="none" target-height="19.399994" target-width="58.09999" target-x="173.3" target-y="218.5"></path></g><path d="M 182.30 217.90 L 222.40 217.90 L 224.80 218.20 L 227.00 219.10 L 228.80 220.60 L 230.20 222.40 L 231.10 224.50 L 231.40 226.90 L 231.10 229.30 L 230.20 231.50 L 228.80 233.30 L 227.00 234.70 L 224.80 235.60 L 222.40 235.90 L 182.30 235.90 L 179.90 235.60 L 177.70 234.70 L 175.90 233.30 L 174.50 231.50 L 173.60 229.30 L 173.30 226.90 L 173.60 224.50 L 174.50 222.40 L 175.90 220.60 L 177.70 219.10 L 179.90 218.20 L 182.30 217.90 Z" fill="url(#linearGradient-30)" fill-rule="evenodd" group-id="1,3,14" node-id="383" stroke="none" target-height="18" target-width="58.09999" target-x="173.3" target-y="217.9"></path></g><path d="M 206.90 226.80 L 206.70 228.20 L 205.40 230.40 L 203.20 231.70 L 201.80 231.90 L 200.50 231.70 L 198.20 230.40 L 196.90 228.20 L 196.70 226.80 L 196.90 225.40 L 198.20 223.20 L 200.50 221.90 L 201.80 221.70 L 203.20 221.90 L 205.40 223.20 L 206.70 225.40 L 206.90 226.80 Z" fill="url(#linearGradient-33)" fill-rule="evenodd" group-id="1" id="椭圆形" node-id="129" stroke="none" target-height="10.199997" target-width="10.199997" target-x="196.7" target-y="221.7"></path><path d="M 206.90 227.80 L 206.70 229.20 L 205.40 231.40 L 203.20 232.70 L 201.80 232.90 L 199.30 232.20 L 197.40 230.40 L 196.90 229.20 L 196.70 227.80 L 197.40 225.20 L 199.30 223.40 L 201.80 222.70 L 203.20 222.90 L 205.40 224.20 L 206.70 226.40 L 206.90 227.80 Z" fill="url(#linearGradient-34)" fill-rule="evenodd" group-id="1" id="椭圆形备份-17" node-id="130" stroke="none" target-height="10.199997" target-width="10.199997" target-x="196.7" target-y="222.7"></path></g></svg>